solid Assembly - m1770_detector_assem-2 m1770_cap-2
   facet normal 1.000000e+00 -7.167982e-29 -1.538016e-16
      outer loop
         vertex 3.805587e+01 1.519057e+01 9.815400e+01
         vertex 3.805587e+01 3.076296e+00 9.215400e+01
         vertex 3.805587e+01 1.519057e+01 9.215400e+01
      endloop
   endfacet
   facet normal -1.538016e-16 -1.224647e-16 -1.000000e+00
      outer loop
         vertex 3.805587e+01 3.076296e+00 9.215400e+01
         vertex 3.205587e+01 3.076296e+00 9.215400e+01
         vertex 3.805587e+01 1.519057e+01 9.215400e+01
      endloop
   endfacet
   facet normal -1.538016e-16 -1.224647e-16 -1.000000e+00
      outer loop
         vertex 3.205587e+01 3.076296e+00 9.215400e+01
         vertex 3.205587e+01 1.519057e+01 9.215400e+01
         vertex 3.805587e+01 1.519057e+01 9.215400e+01
      endloop
   endfacet
   facet normal 2.753406e-28 1.000000e+00 -1.224647e-16
      outer loop
         vertex 3.205587e+01 1.519057e+01 9.215400e+01
         vertex 3.205587e+01 1.519057e+01 9.815400e+01
         vertex 3.805587e+01 1.519057e+01 9.215400e+01
      endloop
   endfacet
   facet normal 2.753406e-28 1.000000e+00 -1.224647e-16
      outer loop
         vertex 3.205587e+01 1.519057e+01 9.815400e+01
         vertex 3.805587e+01 1.519057e+01 9.815400e+01
         vertex 3.805587e+01 1.519057e+01 9.215400e+01
      endloop
   endfacet
   facet normal -1.000000e+00 7.167982e-29 1.538016e-16
      outer loop
         vertex 3.205587e+01 3.076296e+00 9.215400e+01
         vertex 3.205587e+01 3.076296e+00 9.815400e+01
         vertex 3.205587e+01 1.519057e+01 9.215400e+01
      endloop
   endfacet
   facet normal -1.000000e+00 7.167982e-29 1.538016e-16
      outer loop
         vertex 3.205587e+01 3.076296e+00 9.815400e+01
         vertex 3.205587e+01 1.519057e+01 9.815400e+01
         vertex 3.205587e+01 1.519057e+01 9.215400e+01
      endloop
   endfacet
   facet normal 1.000000e+00 -7.167982e-29 -1.538016e-16
      outer loop
         vertex 3.805587e+01 3.076296e+00 9.815400e+01
         vertex 3.805587e+01 3.076296e+00 9.215400e+01
         vertex 3.805587e+01 1.519057e+01 9.815400e+01
      endloop
   endfacet
   facet normal 1.538016e-16 1.224647e-16 1.000000e+00
      outer loop
         vertex 3.205587e+01 1.519057e+01 9.815400e+01
         vertex 3.805587e+01 3.076296e+00 9.815400e+01
         vertex 3.805587e+01 1.519057e+01 9.815400e+01
      endloop
   endfacet
   facet normal 1.538016e-16 1.224647e-16 1.000000e+00
      outer loop
         vertex 3.205587e+01 3.076296e+00 9.815400e+01
         vertex 3.805587e+01 3.076296e+00 9.815400e+01
         vertex 3.205587e+01 1.519057e+01 9.815400e+01
      endloop
   endfacet
   facet normal -2.753406e-28 -1.000000e+00 1.224647e-16
      outer loop
         vertex 3.805587e+01 3.076296e+00 9.815400e+01
         vertex 3.205587e+01 3.076296e+00 9.215400e+01
         vertex 3.805587e+01 3.076296e+00 9.215400e+01
      endloop
   endfacet
   facet normal -2.753406e-28 -1.000000e+00 1.224647e-16
      outer loop
         vertex 3.805587e+01 3.076296e+00 9.815400e+01
         vertex 3.205587e+01 3.076296e+00 9.815400e+01
         vertex 3.205587e+01 3.076296e+00 9.215400e+01
      endloop
   endfacet
endsolid