solid Assembly - m1770_detector_assem-2 m1770_conect-2
   facet normal -1.000000e+00 0.000000e+00 0.000000e+00
      outer loop
         vertex 8.215125e+00 9.776309e+00 8.677060e+01
         vertex 8.215125e+00 1.519057e+01 8.143610e+01
         vertex 8.215125e+00 9.776309e+00 8.143610e+01
      endloop
   endfacet
   facet normal 0.000000e+00 0.000000e+00 -1.000000e+00
      outer loop
         vertex 8.215125e+00 1.519057e+01 8.143610e+01
         vertex 2.288513e+01 1.519057e+01 8.143610e+01
         vertex 8.215125e+00 9.776309e+00 8.143610e+01
      endloop
   endfacet
   facet normal 0.000000e+00 -0.000000e+00 -1.000000e+00
      outer loop
         vertex 2.288513e+01 1.519057e+01 8.143610e+01
         vertex 2.288513e+01 9.776309e+00 8.143610e+01
         vertex 8.215125e+00 9.776309e+00 8.143610e+01
      endloop
   endfacet
   facet normal 0.000000e+00 -1.000000e+00 0.000000e+00
      outer loop
         vertex 2.288513e+01 9.776309e+00 8.143610e+01
         vertex 2.288513e+01 9.776309e+00 8.677060e+01
         vertex 8.215125e+00 9.776309e+00 8.143610e+01
      endloop
   endfacet
   facet normal -0.000000e+00 -1.000000e+00 0.000000e+00
      outer loop
         vertex 2.288513e+01 9.776309e+00 8.677060e+01
         vertex 8.215125e+00 9.776309e+00 8.677060e+01
         vertex 8.215125e+00 9.776309e+00 8.143610e+01
      endloop
   endfacet
   facet normal 1.000000e+00 0.000000e+00 -0.000000e+00
      outer loop
         vertex 2.288513e+01 1.519057e+01 8.143610e+01
         vertex 2.288513e+01 1.519057e+01 8.677060e+01
         vertex 2.288513e+01 9.776309e+00 8.143610e+01
      endloop
   endfacet
   facet normal 1.000000e+00 0.000000e+00 0.000000e+00
      outer loop
         vertex 2.288513e+01 1.519057e+01 8.677060e+01
         vertex 2.288513e+01 9.776309e+00 8.677060e+01
         vertex 2.288513e+01 9.776309e+00 8.143610e+01
      endloop
   endfacet
   facet normal -1.000000e+00 -0.000000e+00 -0.000000e+00
      outer loop
         vertex 8.215125e+00 1.519057e+01 8.677060e+01
         vertex 8.215125e+00 1.519057e+01 8.143610e+01
         vertex 8.215125e+00 9.776309e+00 8.677060e+01
      endloop
   endfacet
   facet normal 0.000000e+00 0.000000e+00 1.000000e+00
      outer loop
         vertex 2.288513e+01 9.776309e+00 8.677060e+01
         vertex 8.215125e+00 1.519057e+01 8.677060e+01
         vertex 8.215125e+00 9.776309e+00 8.677060e+01
      endloop
   endfacet
   facet normal 0.000000e+00 0.000000e+00 1.000000e+00
      outer loop
         vertex 2.288513e+01 1.519057e+01 8.677060e+01
         vertex 8.215125e+00 1.519057e+01 8.677060e+01
         vertex 2.288513e+01 9.776309e+00 8.677060e+01
      endloop
   endfacet
   facet normal 0.000000e+00 1.000000e+00 0.000000e+00
      outer loop
         vertex 8.215125e+00 1.519057e+01 8.677060e+01
         vertex 2.288513e+01 1.519057e+01 8.143610e+01
         vertex 8.215125e+00 1.519057e+01 8.143610e+01
      endloop
   endfacet
   facet normal -0.000000e+00 1.000000e+00 0.000000e+00
      outer loop
         vertex 8.215125e+00 1.519057e+01 8.677060e+01
         vertex 2.288513e+01 1.519057e+01 8.677060e+01
         vertex 2.288513e+01 1.519057e+01 8.143610e+01
      endloop
   endfacet
endsolid