solid Assembly - m1770_detector_assem-4 m1770_detector-1
   facet normal -1.000000e+00 0.000000e+00 0.000000e+00
      outer loop
         vertex 4.757123e+00 1.519057e+01 7.283180e+01
         vertex 4.757123e+00 3.037622e+01 3.371327e+01
         vertex 4.757123e+00 1.519057e+01 3.371327e+01
      endloop
   endfacet
   facet normal 0.000000e+00 0.000000e+00 -1.000000e+00
      outer loop
         vertex 4.757123e+00 3.037622e+01 3.371327e+01
         vertex 4.387566e+01 3.037622e+01 3.371327e+01
         vertex 4.757123e+00 1.519057e+01 3.371327e+01
      endloop
   endfacet
   facet normal 0.000000e+00 -0.000000e+00 -1.000000e+00
      outer loop
         vertex 4.387566e+01 3.037622e+01 3.371327e+01
         vertex 4.387566e+01 1.519057e+01 3.371327e+01
         vertex 4.757123e+00 1.519057e+01 3.371327e+01
      endloop
   endfacet
   facet normal 0.000000e+00 -1.000000e+00 0.000000e+00
      outer loop
         vertex 4.387566e+01 1.519057e+01 3.371327e+01
         vertex 4.387566e+01 1.519057e+01 7.283180e+01
         vertex 4.757123e+00 1.519057e+01 3.371327e+01
      endloop
   endfacet
   facet normal -0.000000e+00 -1.000000e+00 0.000000e+00
      outer loop
         vertex 4.387566e+01 1.519057e+01 7.283180e+01
         vertex 4.757123e+00 1.519057e+01 7.283180e+01
         vertex 4.757123e+00 1.519057e+01 3.371327e+01
      endloop
   endfacet
   facet normal 1.000000e+00 0.000000e+00 -0.000000e+00
      outer loop
         vertex 4.387566e+01 3.037622e+01 3.371327e+01
         vertex 4.387566e+01 3.037622e+01 7.283180e+01
         vertex 4.387566e+01 1.519057e+01 3.371327e+01
      endloop
   endfacet
   facet normal 1.000000e+00 0.000000e+00 0.000000e+00
      outer loop
         vertex 4.387566e+01 3.037622e+01 7.283180e+01
         vertex 4.387566e+01 1.519057e+01 7.283180e+01
         vertex 4.387566e+01 1.519057e+01 3.371327e+01
      endloop
   endfacet
   facet normal -1.000000e+00 -0.000000e+00 -0.000000e+00
      outer loop
         vertex 4.757123e+00 3.037622e+01 7.283180e+01
         vertex 4.757123e+00 3.037622e+01 3.371327e+01
         vertex 4.757123e+00 1.519057e+01 7.283180e+01
      endloop
   endfacet
   facet normal 0.000000e+00 0.000000e+00 1.000000e+00
      outer loop
         vertex 4.387566e+01 1.519057e+01 7.283180e+01
         vertex 4.757123e+00 3.037622e+01 7.283180e+01
         vertex 4.757123e+00 1.519057e+01 7.283180e+01
      endloop
   endfacet
   facet normal 0.000000e+00 0.000000e+00 1.000000e+00
      outer loop
         vertex 4.387566e+01 3.037622e+01 7.283180e+01
         vertex 4.757123e+00 3.037622e+01 7.283180e+01
         vertex 4.387566e+01 1.519057e+01 7.283180e+01
      endloop
   endfacet
   facet normal 0.000000e+00 1.000000e+00 0.000000e+00
      outer loop
         vertex 4.757123e+00 3.037622e+01 7.283180e+01
         vertex 4.387566e+01 3.037622e+01 3.371327e+01
         vertex 4.757123e+00 3.037622e+01 3.371327e+01
      endloop
   endfacet
   facet normal -0.000000e+00 1.000000e+00 0.000000e+00
      outer loop
         vertex 4.757123e+00 3.037622e+01 7.283180e+01
         vertex 4.387566e+01 3.037622e+01 7.283180e+01
         vertex 4.387566e+01 3.037622e+01 3.371327e+01
      endloop
   endfacet
endsolid