solid Assembly - m1770_detector_assem-1 m1770_cap-2
   facet normal 1.000000e+00 -7.167982e-29 -1.538016e-16
      outer loop
         vertex 8.505587e+01 1.519057e+01 5.627254e+01
         vertex 8.505587e+01 3.076296e+00 5.027254e+01
         vertex 8.505587e+01 1.519057e+01 5.027254e+01
      endloop
   endfacet
   facet normal -1.538016e-16 -1.224647e-16 -1.000000e+00
      outer loop
         vertex 8.505587e+01 3.076296e+00 5.027254e+01
         vertex 7.905587e+01 3.076296e+00 5.027254e+01
         vertex 8.505587e+01 1.519057e+01 5.027254e+01
      endloop
   endfacet
   facet normal -1.538016e-16 -1.224647e-16 -1.000000e+00
      outer loop
         vertex 7.905587e+01 3.076296e+00 5.027254e+01
         vertex 7.905587e+01 1.519057e+01 5.027254e+01
         vertex 8.505587e+01 1.519057e+01 5.027254e+01
      endloop
   endfacet
   facet normal 2.753406e-28 1.000000e+00 -1.224647e-16
      outer loop
         vertex 7.905587e+01 1.519057e+01 5.027254e+01
         vertex 7.905587e+01 1.519057e+01 5.627254e+01
         vertex 8.505587e+01 1.519057e+01 5.027254e+01
      endloop
   endfacet
   facet normal 2.753406e-28 1.000000e+00 -1.224647e-16
      outer loop
         vertex 7.905587e+01 1.519057e+01 5.627254e+01
         vertex 8.505587e+01 1.519057e+01 5.627254e+01
         vertex 8.505587e+01 1.519057e+01 5.027254e+01
      endloop
   endfacet
   facet normal -1.000000e+00 7.167982e-29 1.538016e-16
      outer loop
         vertex 7.905587e+01 3.076296e+00 5.027254e+01
         vertex 7.905587e+01 3.076296e+00 5.627254e+01
         vertex 7.905587e+01 1.519057e+01 5.027254e+01
      endloop
   endfacet
   facet normal -1.000000e+00 7.167982e-29 1.538016e-16
      outer loop
         vertex 7.905587e+01 3.076296e+00 5.627254e+01
         vertex 7.905587e+01 1.519057e+01 5.627254e+01
         vertex 7.905587e+01 1.519057e+01 5.027254e+01
      endloop
   endfacet
   facet normal 1.000000e+00 -7.167982e-29 -1.538016e-16
      outer loop
         vertex 8.505587e+01 3.076296e+00 5.627254e+01
         vertex 8.505587e+01 3.076296e+00 5.027254e+01
         vertex 8.505587e+01 1.519057e+01 5.627254e+01
      endloop
   endfacet
   facet normal 1.538016e-16 1.224647e-16 1.000000e+00
      outer loop
         vertex 7.905587e+01 1.519057e+01 5.627254e+01
         vertex 8.505587e+01 3.076296e+00 5.627254e+01
         vertex 8.505587e+01 1.519057e+01 5.627254e+01
      endloop
   endfacet
   facet normal 1.538016e-16 1.224647e-16 1.000000e+00
      outer loop
         vertex 7.905587e+01 3.076296e+00 5.627254e+01
         vertex 8.505587e+01 3.076296e+00 5.627254e+01
         vertex 7.905587e+01 1.519057e+01 5.627254e+01
      endloop
   endfacet
   facet normal -2.753406e-28 -1.000000e+00 1.224647e-16
      outer loop
         vertex 8.505587e+01 3.076296e+00 5.627254e+01
         vertex 7.905587e+01 3.076296e+00 5.027254e+01
         vertex 8.505587e+01 3.076296e+00 5.027254e+01
      endloop
   endfacet
   facet normal -2.753406e-28 -1.000000e+00 1.224647e-16
      outer loop
         vertex 8.505587e+01 3.076296e+00 5.627254e+01
         vertex 7.905587e+01 3.076296e+00 5.627254e+01
         vertex 7.905587e+01 3.076296e+00 5.027254e+01
      endloop
   endfacet
endsolid