solid Assembly - m1770_detector_assem-3 m1770_pin-1
   facet normal -1.000000e+00 0.000000e+00 0.000000e+00
      outer loop
         vertex 8.387911e+01 8.676209e+00 8.275655e+01
         vertex 8.387911e+01 1.519057e+01 8.235655e+01
         vertex 8.387911e+01 8.676209e+00 8.235655e+01
      endloop
   endfacet
   facet normal 0.000000e+00 -1.000000e+00 0.000000e+00
      outer loop
         vertex 8.427911e+01 8.676209e+00 8.235655e+01
         vertex 8.427911e+01 8.676209e+00 8.275655e+01
         vertex 8.387911e+01 8.676209e+00 8.235655e+01
      endloop
   endfacet
   facet normal -0.000000e+00 -1.000000e+00 0.000000e+00
      outer loop
         vertex 8.427911e+01 8.676209e+00 8.275655e+01
         vertex 8.387911e+01 8.676209e+00 8.275655e+01
         vertex 8.387911e+01 8.676209e+00 8.235655e+01
      endloop
   endfacet
   facet normal 1.000000e+00 0.000000e+00 -0.000000e+00
      outer loop
         vertex 8.427911e+01 1.519057e+01 8.235655e+01
         vertex 8.427911e+01 1.519057e+01 8.275655e+01
         vertex 8.427911e+01 8.676209e+00 8.235655e+01
      endloop
   endfacet
   facet normal 1.000000e+00 0.000000e+00 0.000000e+00
      outer loop
         vertex 8.427911e+01 1.519057e+01 8.275655e+01
         vertex 8.427911e+01 8.676209e+00 8.275655e+01
         vertex 8.427911e+01 8.676209e+00 8.235655e+01
      endloop
   endfacet
   facet normal -1.000000e+00 -0.000000e+00 -0.000000e+00
      outer loop
         vertex 8.387911e+01 1.519057e+01 8.275655e+01
         vertex 8.387911e+01 1.519057e+01 8.235655e+01
         vertex 8.387911e+01 8.676209e+00 8.275655e+01
      endloop
   endfacet
   facet normal 0.000000e+00 0.000000e+00 1.000000e+00
      outer loop
         vertex 8.427911e+01 8.676209e+00 8.275655e+01
         vertex 8.387911e+01 1.519057e+01 8.275655e+01
         vertex 8.387911e+01 8.676209e+00 8.275655e+01
      endloop
   endfacet
   facet normal 0.000000e+00 0.000000e+00 1.000000e+00
      outer loop
         vertex 8.427911e+01 1.519057e+01 8.275655e+01
         vertex 8.387911e+01 1.519057e+01 8.275655e+01
         vertex 8.427911e+01 8.676209e+00 8.275655e+01
      endloop
   endfacet
   facet normal 0.000000e+00 0.000000e+00 -1.000000e+00
      outer loop
         vertex 8.387911e+01 1.519057e+01 8.235655e+01
         vertex 8.427911e+01 1.519057e+01 8.235655e+01
         vertex 8.387911e+01 8.676209e+00 8.235655e+01
      endloop
   endfacet
   facet normal 0.000000e+00 -0.000000e+00 -1.000000e+00
      outer loop
         vertex 8.427911e+01 1.519057e+01 8.235655e+01
         vertex 8.427911e+01 8.676209e+00 8.235655e+01
         vertex 8.387911e+01 8.676209e+00 8.235655e+01
      endloop
   endfacet
   facet normal 0.000000e+00 1.000000e+00 0.000000e+00
      outer loop
         vertex 8.387911e+01 1.519057e+01 8.275655e+01
         vertex 8.427911e+01 1.519057e+01 8.235655e+01
         vertex 8.387911e+01 1.519057e+01 8.235655e+01
      endloop
   endfacet
   facet normal -0.000000e+00 1.000000e+00 0.000000e+00
      outer loop
         vertex 8.387911e+01 1.519057e+01 8.275655e+01
         vertex 8.427911e+01 1.519057e+01 8.275655e+01
         vertex 8.427911e+01 1.519057e+01 8.235655e+01
      endloop
   endfacet
endsolid