solid Assembly - m1770_detector_assem-3 m1770_detector-1
   facet normal -1.000000e+00 0.000000e+00 0.000000e+00
      outer loop
         vertex 5.175712e+01 1.519057e+01 1.147133e+02
         vertex 5.175712e+01 3.037622e+01 7.559473e+01
         vertex 5.175712e+01 1.519057e+01 7.559473e+01
      endloop
   endfacet
   facet normal 0.000000e+00 0.000000e+00 -1.000000e+00
      outer loop
         vertex 5.175712e+01 3.037622e+01 7.559473e+01
         vertex 9.087566e+01 3.037622e+01 7.559473e+01
         vertex 5.175712e+01 1.519057e+01 7.559473e+01
      endloop
   endfacet
   facet normal 0.000000e+00 -0.000000e+00 -1.000000e+00
      outer loop
         vertex 9.087566e+01 3.037622e+01 7.559473e+01
         vertex 9.087566e+01 1.519057e+01 7.559473e+01
         vertex 5.175712e+01 1.519057e+01 7.559473e+01
      endloop
   endfacet
   facet normal 0.000000e+00 -1.000000e+00 0.000000e+00
      outer loop
         vertex 9.087566e+01 1.519057e+01 7.559473e+01
         vertex 9.087566e+01 1.519057e+01 1.147133e+02
         vertex 5.175712e+01 1.519057e+01 7.559473e+01
      endloop
   endfacet
   facet normal -0.000000e+00 -1.000000e+00 0.000000e+00
      outer loop
         vertex 9.087566e+01 1.519057e+01 1.147133e+02
         vertex 5.175712e+01 1.519057e+01 1.147133e+02
         vertex 5.175712e+01 1.519057e+01 7.559473e+01
      endloop
   endfacet
   facet normal 1.000000e+00 0.000000e+00 -0.000000e+00
      outer loop
         vertex 9.087566e+01 3.037622e+01 7.559473e+01
         vertex 9.087566e+01 3.037622e+01 1.147133e+02
         vertex 9.087566e+01 1.519057e+01 7.559473e+01
      endloop
   endfacet
   facet normal 1.000000e+00 0.000000e+00 0.000000e+00
      outer loop
         vertex 9.087566e+01 3.037622e+01 1.147133e+02
         vertex 9.087566e+01 1.519057e+01 1.147133e+02
         vertex 9.087566e+01 1.519057e+01 7.559473e+01
      endloop
   endfacet
   facet normal -1.000000e+00 -0.000000e+00 -0.000000e+00
      outer loop
         vertex 5.175712e+01 3.037622e+01 1.147133e+02
         vertex 5.175712e+01 3.037622e+01 7.559473e+01
         vertex 5.175712e+01 1.519057e+01 1.147133e+02
      endloop
   endfacet
   facet normal 0.000000e+00 0.000000e+00 1.000000e+00
      outer loop
         vertex 9.087566e+01 1.519057e+01 1.147133e+02
         vertex 5.175712e+01 3.037622e+01 1.147133e+02
         vertex 5.175712e+01 1.519057e+01 1.147133e+02
      endloop
   endfacet
   facet normal 0.000000e+00 0.000000e+00 1.000000e+00
      outer loop
         vertex 9.087566e+01 3.037622e+01 1.147133e+02
         vertex 5.175712e+01 3.037622e+01 1.147133e+02
         vertex 9.087566e+01 1.519057e+01 1.147133e+02
      endloop
   endfacet
   facet normal 0.000000e+00 1.000000e+00 0.000000e+00
      outer loop
         vertex 5.175712e+01 3.037622e+01 1.147133e+02
         vertex 9.087566e+01 3.037622e+01 7.559473e+01
         vertex 5.175712e+01 3.037622e+01 7.559473e+01
      endloop
   endfacet
   facet normal -0.000000e+00 1.000000e+00 0.000000e+00
      outer loop
         vertex 5.175712e+01 3.037622e+01 1.147133e+02
         vertex 9.087566e+01 3.037622e+01 1.147133e+02
         vertex 9.087566e+01 3.037622e+01 7.559473e+01
      endloop
   endfacet
endsolid