solid Assembly - m1770_detector_assem-3 m1770_cap-1
   facet normal -1.000000e+00 0.000000e+00 0.000000e+00
      outer loop
         vertex 5.955587e+01 3.076297e+00 9.815400e+01
         vertex 5.955587e+01 1.519057e+01 9.215400e+01
         vertex 5.955587e+01 3.076297e+00 9.215400e+01
      endloop
   endfacet
   facet normal 0.000000e+00 0.000000e+00 -1.000000e+00
      outer loop
         vertex 5.955587e+01 1.519057e+01 9.215400e+01
         vertex 6.555587e+01 1.519057e+01 9.215400e+01
         vertex 5.955587e+01 3.076297e+00 9.215400e+01
      endloop
   endfacet
   facet normal 0.000000e+00 -0.000000e+00 -1.000000e+00
      outer loop
         vertex 6.555587e+01 1.519057e+01 9.215400e+01
         vertex 6.555587e+01 3.076297e+00 9.215400e+01
         vertex 5.955587e+01 3.076297e+00 9.215400e+01
      endloop
   endfacet
   facet normal 0.000000e+00 -1.000000e+00 0.000000e+00
      outer loop
         vertex 6.555587e+01 3.076297e+00 9.215400e+01
         vertex 6.555587e+01 3.076297e+00 9.815400e+01
         vertex 5.955587e+01 3.076297e+00 9.215400e+01
      endloop
   endfacet
   facet normal -0.000000e+00 -1.000000e+00 0.000000e+00
      outer loop
         vertex 6.555587e+01 3.076297e+00 9.815400e+01
         vertex 5.955587e+01 3.076297e+00 9.815400e+01
         vertex 5.955587e+01 3.076297e+00 9.215400e+01
      endloop
   endfacet
   facet normal 1.000000e+00 0.000000e+00 -0.000000e+00
      outer loop
         vertex 6.555587e+01 1.519057e+01 9.215400e+01
         vertex 6.555587e+01 1.519057e+01 9.815400e+01
         vertex 6.555587e+01 3.076297e+00 9.215400e+01
      endloop
   endfacet
   facet normal 1.000000e+00 0.000000e+00 0.000000e+00
      outer loop
         vertex 6.555587e+01 1.519057e+01 9.815400e+01
         vertex 6.555587e+01 3.076297e+00 9.815400e+01
         vertex 6.555587e+01 3.076297e+00 9.215400e+01
      endloop
   endfacet
   facet normal -1.000000e+00 -0.000000e+00 -0.000000e+00
      outer loop
         vertex 5.955587e+01 1.519057e+01 9.815400e+01
         vertex 5.955587e+01 1.519057e+01 9.215400e+01
         vertex 5.955587e+01 3.076297e+00 9.815400e+01
      endloop
   endfacet
   facet normal 0.000000e+00 0.000000e+00 1.000000e+00
      outer loop
         vertex 6.555587e+01 3.076297e+00 9.815400e+01
         vertex 5.955587e+01 1.519057e+01 9.815400e+01
         vertex 5.955587e+01 3.076297e+00 9.815400e+01
      endloop
   endfacet
   facet normal 0.000000e+00 0.000000e+00 1.000000e+00
      outer loop
         vertex 6.555587e+01 1.519057e+01 9.815400e+01
         vertex 5.955587e+01 1.519057e+01 9.815400e+01
         vertex 6.555587e+01 3.076297e+00 9.815400e+01
      endloop
   endfacet
   facet normal 0.000000e+00 1.000000e+00 0.000000e+00
      outer loop
         vertex 5.955587e+01 1.519057e+01 9.815400e+01
         vertex 6.555587e+01 1.519057e+01 9.215400e+01
         vertex 5.955587e+01 1.519057e+01 9.215400e+01
      endloop
   endfacet
   facet normal -0.000000e+00 1.000000e+00 0.000000e+00
      outer loop
         vertex 5.955587e+01 1.519057e+01 9.815400e+01
         vertex 6.555587e+01 1.519057e+01 9.815400e+01
         vertex 6.555587e+01 1.519057e+01 9.215400e+01
      endloop
   endfacet
endsolid