solid Assembly - m1770_detector_assem-3 m1770_conect-2
   facet normal -1.000000e+00 0.000000e+00 0.000000e+00
      outer loop
         vertex 5.521513e+01 9.776309e+00 8.677060e+01
         vertex 5.521513e+01 1.519057e+01 8.143610e+01
         vertex 5.521513e+01 9.776309e+00 8.143610e+01
      endloop
   endfacet
   facet normal 0.000000e+00 0.000000e+00 -1.000000e+00
      outer loop
         vertex 5.521513e+01 1.519057e+01 8.143610e+01
         vertex 6.988513e+01 1.519057e+01 8.143610e+01
         vertex 5.521513e+01 9.776309e+00 8.143610e+01
      endloop
   endfacet
   facet normal 0.000000e+00 -0.000000e+00 -1.000000e+00
      outer loop
         vertex 6.988513e+01 1.519057e+01 8.143610e+01
         vertex 6.988513e+01 9.776309e+00 8.143610e+01
         vertex 5.521513e+01 9.776309e+00 8.143610e+01
      endloop
   endfacet
   facet normal 0.000000e+00 -1.000000e+00 0.000000e+00
      outer loop
         vertex 6.988513e+01 9.776309e+00 8.143610e+01
         vertex 6.988513e+01 9.776309e+00 8.677060e+01
         vertex 5.521513e+01 9.776309e+00 8.143610e+01
      endloop
   endfacet
   facet normal -0.000000e+00 -1.000000e+00 0.000000e+00
      outer loop
         vertex 6.988513e+01 9.776309e+00 8.677060e+01
         vertex 5.521513e+01 9.776309e+00 8.677060e+01
         vertex 5.521513e+01 9.776309e+00 8.143610e+01
      endloop
   endfacet
   facet normal 1.000000e+00 0.000000e+00 -0.000000e+00
      outer loop
         vertex 6.988513e+01 1.519057e+01 8.143610e+01
         vertex 6.988513e+01 1.519057e+01 8.677060e+01
         vertex 6.988513e+01 9.776309e+00 8.143610e+01
      endloop
   endfacet
   facet normal 1.000000e+00 0.000000e+00 0.000000e+00
      outer loop
         vertex 6.988513e+01 1.519057e+01 8.677060e+01
         vertex 6.988513e+01 9.776309e+00 8.677060e+01
         vertex 6.988513e+01 9.776309e+00 8.143610e+01
      endloop
   endfacet
   facet normal -1.000000e+00 -0.000000e+00 -0.000000e+00
      outer loop
         vertex 5.521513e+01 1.519057e+01 8.677060e+01
         vertex 5.521513e+01 1.519057e+01 8.143610e+01
         vertex 5.521513e+01 9.776309e+00 8.677060e+01
      endloop
   endfacet
   facet normal 0.000000e+00 0.000000e+00 1.000000e+00
      outer loop
         vertex 6.988513e+01 9.776309e+00 8.677060e+01
         vertex 5.521513e+01 1.519057e+01 8.677060e+01
         vertex 5.521513e+01 9.776309e+00 8.677060e+01
      endloop
   endfacet
   facet normal 0.000000e+00 0.000000e+00 1.000000e+00
      outer loop
         vertex 6.988513e+01 1.519057e+01 8.677060e+01
         vertex 5.521513e+01 1.519057e+01 8.677060e+01
         vertex 6.988513e+01 9.776309e+00 8.677060e+01
      endloop
   endfacet
   facet normal 0.000000e+00 1.000000e+00 0.000000e+00
      outer loop
         vertex 5.521513e+01 1.519057e+01 8.677060e+01
         vertex 6.988513e+01 1.519057e+01 8.143610e+01
         vertex 5.521513e+01 1.519057e+01 8.143610e+01
      endloop
   endfacet
   facet normal -0.000000e+00 1.000000e+00 0.000000e+00
      outer loop
         vertex 5.521513e+01 1.519057e+01 8.677060e+01
         vertex 6.988513e+01 1.519057e+01 8.677060e+01
         vertex 6.988513e+01 1.519057e+01 8.143610e+01
      endloop
   endfacet
endsolid