solid Assembly - newaperture_housing-2
   facet normal -0.000000e+00 -1.000000e+00 0.000000e+00
      outer loop
         vertex 5.175712e+01 1.737621e+01 3.371326e+01
         vertex 4.931712e+01 1.737621e+01 1.177133e+02
         vertex 4.931712e+01 1.737621e+01 3.071327e+01
      endloop
   endfacet
   facet normal -0.000000e+00 -1.000000e+00 0.000000e+00
      outer loop
         vertex 9.087712e+01 1.737621e+01 3.371326e+01
         vertex 5.175712e+01 1.737621e+01 3.371326e+01
         vertex 4.931712e+01 1.737621e+01 3.071327e+01
      endloop
   endfacet
   facet normal 0.000000e+00 -1.000000e+00 0.000000e+00
      outer loop
         vertex 9.331712e+01 1.737621e+01 3.071327e+01
         vertex 9.087712e+01 1.737621e+01 3.371326e+01
         vertex 4.931712e+01 1.737621e+01 3.071327e+01
      endloop
   endfacet
   facet normal -1.000000e+00 0.000000e+00 0.000000e+00
      outer loop
         vertex 4.931712e+01 1.737621e+01 1.177133e+02
         vertex 4.931712e+01 5.237621e+01 1.177133e+02
         vertex 4.931712e+01 1.737621e+01 3.071327e+01
      endloop
   endfacet
   facet normal -1.000000e+00 0.000000e+00 -0.000000e+00
      outer loop
         vertex 4.931712e+01 5.237621e+01 1.177133e+02
         vertex 4.931712e+01 5.237621e+01 3.071327e+01
         vertex 4.931712e+01 1.737621e+01 3.071327e+01
      endloop
   endfacet
   facet normal 0.000000e+00 0.000000e+00 -1.000000e+00
      outer loop
         vertex 4.931712e+01 5.237621e+01 3.071327e+01
         vertex 9.331712e+01 5.237621e+01 3.071327e+01
         vertex 4.931712e+01 1.737621e+01 3.071327e+01
      endloop
   endfacet
   facet normal 0.000000e+00 -0.000000e+00 -1.000000e+00
      outer loop
         vertex 9.331712e+01 5.237621e+01 3.071327e+01
         vertex 9.331712e+01 1.737621e+01 3.071327e+01
         vertex 4.931712e+01 1.737621e+01 3.071327e+01
      endloop
   endfacet
   facet normal 0.000000e+00 -1.000000e+00 0.000000e+00
      outer loop
         vertex 9.087712e+01 1.737621e+01 1.147133e+02
         vertex 9.087712e+01 1.737621e+01 3.371326e+01
         vertex 9.331712e+01 1.737621e+01 3.071327e+01
      endloop
   endfacet
   facet normal 0.000000e+00 -1.000000e+00 -0.000000e+00
      outer loop
         vertex 9.331712e+01 1.737621e+01 1.177133e+02
         vertex 9.087712e+01 1.737621e+01 1.147133e+02
         vertex 9.331712e+01 1.737621e+01 3.071327e+01
      endloop
   endfacet
   facet normal 1.000000e+00 0.000000e+00 0.000000e+00
      outer loop
         vertex 9.331712e+01 5.237621e+01 3.071327e+01
         vertex 9.331712e+01 1.737621e+01 1.177133e+02
         vertex 9.331712e+01 1.737621e+01 3.071327e+01
      endloop
   endfacet
   facet normal -0.000000e+00 -1.000000e+00 -0.000000e+00
      outer loop
         vertex 5.175712e+01 1.737621e+01 1.147133e+02
         vertex 4.931712e+01 1.737621e+01 1.177133e+02
         vertex 5.175712e+01 1.737621e+01 3.371326e+01
      endloop
   endfacet
   facet normal 1.000000e+00 0.000000e+00 -0.000000e+00
      outer loop
         vertex 5.175712e+01 4.937621e+01 3.371326e+01
         vertex 5.175712e+01 4.937621e+01 1.147133e+02
         vertex 5.175712e+01 1.737621e+01 3.371326e+01
      endloop
   endfacet
   facet normal 1.000000e+00 0.000000e+00 0.000000e+00
      outer loop
         vertex 5.175712e+01 4.937621e+01 1.147133e+02
         vertex 5.175712e+01 1.737621e+01 1.147133e+02
         vertex 5.175712e+01 1.737621e+01 3.371326e+01
      endloop
   endfacet
   facet normal 0.000000e+00 0.000000e+00 1.000000e+00
      outer loop
         vertex 7.031712e+01 4.937621e+01 3.371326e+01
         vertex 5.175712e+01 4.937621e+01 3.371326e+01
         vertex 5.175712e+01 1.737621e+01 3.371326e+01
      endloop
   endfacet
   facet normal 0.000000e+00 0.000000e+00 1.000000e+00
      outer loop
         vertex 9.087712e+01 1.737621e+01 3.371326e+01
         vertex 7.031712e+01 4.937621e+01 3.371326e+01
         vertex 5.175712e+01 1.737621e+01 3.371326e+01
      endloop
   endfacet
   facet normal -1.000000e+00 0.000000e+00 0.000000e+00
      outer loop
         vertex 9.087712e+01 1.737621e+01 1.147133e+02
         vertex 9.087712e+01 4.937621e+01 3.371326e+01
         vertex 9.087712e+01 1.737621e+01 3.371326e+01
      endloop
   endfacet
   facet normal 0.000000e+00 0.000000e+00 1.000000e+00
      outer loop
         vertex 9.087712e+01 4.937621e+01 3.371326e+01
         vertex 7.231712e+01 4.937621e+01 3.371326e+01
         vertex 9.087712e+01 1.737621e+01 3.371326e+01
      endloop
   endfacet
   facet normal 0.000000e+00 0.000000e+00 1.000000e+00
      outer loop
         vertex 7.231712e+01 4.937621e+01 3.371326e+01
         vertex 7.031712e+01 4.937621e+01 3.371326e+01
         vertex 9.087712e+01 1.737621e+01 3.371326e+01
      endloop
   endfacet
   facet normal 0.000000e+00 -1.000000e+00 0.000000e+00
      outer loop
         vertex 9.087712e+01 1.737621e+01 1.147133e+02
         vertex 9.331712e+01 1.737621e+01 1.177133e+02
         vertex 5.175712e+01 1.737621e+01 1.147133e+02
      endloop
   endfacet
   facet normal -0.000000e+00 -1.000000e+00 0.000000e+00
      outer loop
         vertex 9.331712e+01 1.737621e+01 1.177133e+02
         vertex 4.931712e+01 1.737621e+01 1.177133e+02
         vertex 5.175712e+01 1.737621e+01 1.147133e+02
      endloop
   endfacet
   facet normal 0.000000e+00 0.000000e+00 -1.000000e+00
      outer loop
         vertex 5.175712e+01 4.937621e+01 1.147133e+02
         vertex 7.031712e+01 4.937621e+01 1.147133e+02
         vertex 5.175712e+01 1.737621e+01 1.147133e+02
      endloop
   endfacet
   facet normal 0.000000e+00 -0.000000e+00 -1.000000e+00
      outer loop
         vertex 7.031712e+01 4.937621e+01 1.147133e+02
         vertex 7.231712e+01 4.937621e+01 1.147133e+02
         vertex 5.175712e+01 1.737621e+01 1.147133e+02
      endloop
   endfacet
   facet normal 0.000000e+00 -0.000000e+00 -1.000000e+00
      outer loop
         vertex 7.231712e+01 4.937621e+01 1.147133e+02
         vertex 9.087712e+01 1.737621e+01 1.147133e+02
         vertex 5.175712e+01 1.737621e+01 1.147133e+02
      endloop
   endfacet
   facet normal -1.000000e+00 -0.000000e+00 -0.000000e+00
      outer loop
         vertex 9.087712e+01 4.937621e+01 1.147133e+02
         vertex 9.087712e+01 4.937621e+01 3.371326e+01
         vertex 9.087712e+01 1.737621e+01 1.147133e+02
      endloop
   endfacet
   facet normal 0.000000e+00 0.000000e+00 -1.000000e+00
      outer loop
         vertex 7.231712e+01 4.937621e+01 1.147133e+02
         vertex 9.087712e+01 4.937621e+01 1.147133e+02
         vertex 9.087712e+01 1.737621e+01 1.147133e+02
      endloop
   endfacet
   facet normal 0.000000e+00 0.000000e+00 1.000000e+00
      outer loop
         vertex 9.331712e+01 1.737621e+01 1.177133e+02
         vertex 4.931712e+01 5.237621e+01 1.177133e+02
         vertex 4.931712e+01 1.737621e+01 1.177133e+02
      endloop
   endfacet
   facet normal 1.000000e+00 0.000000e+00 -0.000000e+00
      outer loop
         vertex 9.331712e+01 5.237621e+01 3.071327e+01
         vertex 9.331712e+01 5.237621e+01 1.177133e+02
         vertex 9.331712e+01 1.737621e+01 1.177133e+02
      endloop
   endfacet
   facet normal 0.000000e+00 0.000000e+00 1.000000e+00
      outer loop
         vertex 9.331712e+01 5.237621e+01 1.177133e+02
         vertex 4.931712e+01 5.237621e+01 1.177133e+02
         vertex 9.331712e+01 1.737621e+01 1.177133e+02
      endloop
   endfacet
   facet normal 0.000000e+00 -1.000000e+00 0.000000e+00
      outer loop
         vertex 7.031712e+01 4.937621e+01 3.371326e+01
         vertex 7.031712e+01 4.937621e+01 1.147133e+02
         vertex 5.175712e+01 4.937621e+01 3.371326e+01
      endloop
   endfacet
   facet normal -0.000000e+00 -1.000000e+00 0.000000e+00
      outer loop
         vertex 7.031712e+01 4.937621e+01 1.147133e+02
         vertex 5.175712e+01 4.937621e+01 1.147133e+02
         vertex 5.175712e+01 4.937621e+01 3.371326e+01
      endloop
   endfacet
   facet normal 1.000000e+00 0.000000e+00 0.000000e+00
      outer loop
         vertex 7.031712e+01 5.037621e+01 3.371326e+01
         vertex 7.031712e+01 4.937621e+01 1.147133e+02
         vertex 7.031712e+01 4.937621e+01 3.371326e+01
      endloop
   endfacet
   facet normal 0.000000e+00 0.000000e+00 1.000000e+00
      outer loop
         vertex 7.231712e+01 4.937621e+01 3.371326e+01
         vertex 7.031712e+01 5.037621e+01 3.371326e+01
         vertex 7.031712e+01 4.937621e+01 3.371326e+01
      endloop
   endfacet
   facet normal -1.000000e+00 0.000000e+00 -0.000000e+00
      outer loop
         vertex 7.231712e+01 5.037621e+01 1.147133e+02
         vertex 7.231712e+01 5.037621e+01 3.371326e+01
         vertex 7.231712e+01 4.937621e+01 3.371326e+01
      endloop
   endfacet
   facet normal -1.000000e+00 0.000000e+00 0.000000e+00
      outer loop
         vertex 7.231712e+01 4.937621e+01 1.147133e+02
         vertex 7.231712e+01 5.037621e+01 1.147133e+02
         vertex 7.231712e+01 4.937621e+01 3.371326e+01
      endloop
   endfacet
   facet normal 0.000000e+00 -1.000000e+00 0.000000e+00
      outer loop
         vertex 9.087712e+01 4.937621e+01 3.371326e+01
         vertex 9.087712e+01 4.937621e+01 1.147133e+02
         vertex 7.231712e+01 4.937621e+01 3.371326e+01
      endloop
   endfacet
   facet normal -0.000000e+00 -1.000000e+00 0.000000e+00
      outer loop
         vertex 9.087712e+01 4.937621e+01 1.147133e+02
         vertex 7.231712e+01 4.937621e+01 1.147133e+02
         vertex 7.231712e+01 4.937621e+01 3.371326e+01
      endloop
   endfacet
   facet normal 0.000000e+00 0.000000e+00 1.000000e+00
      outer loop
         vertex 7.231712e+01 5.037621e+01 3.371326e+01
         vertex 7.031712e+01 5.037621e+01 3.371326e+01
         vertex 7.231712e+01 4.937621e+01 3.371326e+01
      endloop
   endfacet
   facet normal 1.000000e+00 0.000000e+00 -0.000000e+00
      outer loop
         vertex 7.031712e+01 5.037621e+01 3.371326e+01
         vertex 7.031712e+01 5.037621e+01 1.147133e+02
         vertex 7.031712e+01 4.937621e+01 1.147133e+02
      endloop
   endfacet
   facet normal 0.000000e+00 0.000000e+00 -1.000000e+00
      outer loop
         vertex 7.031712e+01 5.037621e+01 1.147133e+02
         vertex 7.231712e+01 5.037621e+01 1.147133e+02
         vertex 7.031712e+01 4.937621e+01 1.147133e+02
      endloop
   endfacet
   facet normal 0.000000e+00 -0.000000e+00 -1.000000e+00
      outer loop
         vertex 7.231712e+01 5.037621e+01 1.147133e+02
         vertex 7.231712e+01 4.937621e+01 1.147133e+02
         vertex 7.031712e+01 4.937621e+01 1.147133e+02
      endloop
   endfacet
   facet normal 0.000000e+00 0.000000e+00 1.000000e+00
      outer loop
         vertex 7.031712e+01 5.037621e+01 3.371326e+01
         vertex 6.381712e+01 5.237621e+01 3.371326e+01
         vertex 6.381712e+01 5.037621e+01 3.371326e+01
      endloop
   endfacet
   facet normal -0.000000e+00 1.000000e+00 0.000000e+00
      outer loop
         vertex 6.381712e+01 5.037621e+01 1.147133e+02
         vertex 7.031712e+01 5.037621e+01 1.147133e+02
         vertex 6.381712e+01 5.037621e+01 3.371326e+01
      endloop
   endfacet
   facet normal 0.000000e+00 1.000000e+00 0.000000e+00
      outer loop
         vertex 7.031712e+01 5.037621e+01 1.147133e+02
         vertex 7.031712e+01 5.037621e+01 3.371326e+01
         vertex 6.381712e+01 5.037621e+01 3.371326e+01
      endloop
   endfacet
   facet normal 1.000000e+00 0.000000e+00 0.000000e+00
      outer loop
         vertex 6.381712e+01 5.237621e+01 1.147133e+02
         vertex 6.381712e+01 5.037621e+01 1.147133e+02
         vertex 6.381712e+01 5.037621e+01 3.371326e+01
      endloop
   endfacet
   facet normal 1.000000e+00 0.000000e+00 -0.000000e+00
      outer loop
         vertex 6.381712e+01 5.237621e+01 3.371326e+01
         vertex 6.381712e+01 5.237621e+01 1.147133e+02
         vertex 6.381712e+01 5.037621e+01 3.371326e+01
      endloop
   endfacet
   facet normal 0.000000e+00 0.000000e+00 1.000000e+00
      outer loop
         vertex 7.231712e+01 5.037621e+01 3.371326e+01
         vertex 6.381712e+01 5.237621e+01 3.371326e+01
         vertex 7.031712e+01 5.037621e+01 3.371326e+01
      endloop
   endfacet
   facet normal 0.000000e+00 -0.000000e+00 1.000000e+00
      outer loop
         vertex 7.881712e+01 5.037621e+01 3.371326e+01
         vertex 7.881712e+01 5.237621e+01 3.371326e+01
         vertex 7.231712e+01 5.037621e+01 3.371326e+01
      endloop
   endfacet
   facet normal 0.000000e+00 0.000000e+00 1.000000e+00
      outer loop
         vertex 7.881712e+01 5.237621e+01 3.371326e+01
         vertex 6.381712e+01 5.237621e+01 3.371326e+01
         vertex 7.231712e+01 5.037621e+01 3.371326e+01
      endloop
   endfacet
   facet normal 0.000000e+00 1.000000e+00 0.000000e+00
      outer loop
         vertex 7.881712e+01 5.037621e+01 1.147133e+02
         vertex 7.881712e+01 5.037621e+01 3.371326e+01
         vertex 7.231712e+01 5.037621e+01 3.371326e+01
      endloop
   endfacet
   facet normal -0.000000e+00 1.000000e+00 0.000000e+00
      outer loop
         vertex 7.231712e+01 5.037621e+01 1.147133e+02
         vertex 7.881712e+01 5.037621e+01 1.147133e+02
         vertex 7.231712e+01 5.037621e+01 3.371326e+01
      endloop
   endfacet
   facet normal -1.000000e+00 0.000000e+00 0.000000e+00
      outer loop
         vertex 7.881712e+01 5.037621e+01 1.147133e+02
         vertex 7.881712e+01 5.237621e+01 3.371326e+01
         vertex 7.881712e+01 5.037621e+01 3.371326e+01
      endloop
   endfacet
   facet normal 0.000000e+00 0.000000e+00 -1.000000e+00
      outer loop
         vertex 6.381712e+01 5.237621e+01 1.147133e+02
         vertex 7.031712e+01 5.037621e+01 1.147133e+02
         vertex 6.381712e+01 5.037621e+01 1.147133e+02
      endloop
   endfacet
   facet normal 0.000000e+00 0.000000e+00 -1.000000e+00
      outer loop
         vertex 6.381712e+01 5.237621e+01 1.147133e+02
         vertex 7.231712e+01 5.037621e+01 1.147133e+02
         vertex 7.031712e+01 5.037621e+01 1.147133e+02
      endloop
   endfacet
   facet normal 0.000000e+00 0.000000e+00 -1.000000e+00
      outer loop
         vertex 6.381712e+01 5.237621e+01 1.147133e+02
         vertex 7.881712e+01 5.237621e+01 1.147133e+02
         vertex 7.231712e+01 5.037621e+01 1.147133e+02
      endloop
   endfacet
   facet normal 0.000000e+00 -0.000000e+00 -1.000000e+00
      outer loop
         vertex 7.881712e+01 5.237621e+01 1.147133e+02
         vertex 7.881712e+01 5.037621e+01 1.147133e+02
         vertex 7.231712e+01 5.037621e+01 1.147133e+02
      endloop
   endfacet
   facet normal -1.000000e+00 -0.000000e+00 -0.000000e+00
      outer loop
         vertex 7.881712e+01 5.237621e+01 1.147133e+02
         vertex 7.881712e+01 5.237621e+01 3.371326e+01
         vertex 7.881712e+01 5.037621e+01 1.147133e+02
      endloop
   endfacet
   facet normal 0.000000e+00 1.000000e+00 0.000000e+00
      outer loop
         vertex 6.381712e+01 5.237621e+01 3.371326e+01
         vertex 9.331712e+01 5.237621e+01 3.071327e+01
         vertex 4.931712e+01 5.237621e+01 3.071327e+01
      endloop
   endfacet
   facet normal 0.000000e+00 1.000000e+00 0.000000e+00
      outer loop
         vertex 6.381712e+01 5.237621e+01 1.147133e+02
         vertex 6.381712e+01 5.237621e+01 3.371326e+01
         vertex 4.931712e+01 5.237621e+01 3.071327e+01
      endloop
   endfacet
   facet normal 0.000000e+00 1.000000e+00 0.000000e+00
      outer loop
         vertex 4.931712e+01 5.237621e+01 1.177133e+02
         vertex 6.381712e+01 5.237621e+01 1.147133e+02
         vertex 4.931712e+01 5.237621e+01 3.071327e+01
      endloop
   endfacet
   facet normal -0.000000e+00 1.000000e+00 0.000000e+00
      outer loop
         vertex 7.881712e+01 5.237621e+01 3.371326e+01
         vertex 9.331712e+01 5.237621e+01 1.177133e+02
         vertex 9.331712e+01 5.237621e+01 3.071327e+01
      endloop
   endfacet
   facet normal -0.000000e+00 1.000000e+00 0.000000e+00
      outer loop
         vertex 6.381712e+01 5.237621e+01 3.371326e+01
         vertex 7.881712e+01 5.237621e+01 3.371326e+01
         vertex 9.331712e+01 5.237621e+01 3.071327e+01
      endloop
   endfacet
   facet normal -0.000000e+00 1.000000e+00 0.000000e+00
      outer loop
         vertex 7.881712e+01 5.237621e+01 1.147133e+02
         vertex 9.331712e+01 5.237621e+01 1.177133e+02
         vertex 7.881712e+01 5.237621e+01 3.371326e+01
      endloop
   endfacet
   facet normal 0.000000e+00 1.000000e+00 0.000000e+00
      outer loop
         vertex 9.331712e+01 5.237621e+01 1.177133e+02
         vertex 7.881712e+01 5.237621e+01 1.147133e+02
         vertex 6.381712e+01 5.237621e+01 1.147133e+02
      endloop
   endfacet
   facet normal -0.000000e+00 1.000000e+00 0.000000e+00
      outer loop
         vertex 4.931712e+01 5.237621e+01 1.177133e+02
         vertex 9.331712e+01 5.237621e+01 1.177133e+02
         vertex 6.381712e+01 5.237621e+01 1.147133e+02
      endloop
   endfacet
endsolid