solid Assembly - newaperture_housing-1
   facet normal -0.000000e+00 -1.000000e+00 0.000000e+00
      outer loop
         vertex 4.757123e+00 1.737621e+01 3.371326e+01
         vertex 2.317123e+00 1.737621e+01 1.177133e+02
         vertex 2.317123e+00 1.737621e+01 3.071327e+01
      endloop
   endfacet
   facet normal -0.000000e+00 -1.000000e+00 0.000000e+00
      outer loop
         vertex 4.387712e+01 1.737621e+01 3.371326e+01
         vertex 4.757123e+00 1.737621e+01 3.371326e+01
         vertex 2.317123e+00 1.737621e+01 3.071327e+01
      endloop
   endfacet
   facet normal 0.000000e+00 -1.000000e+00 0.000000e+00
      outer loop
         vertex 4.631712e+01 1.737621e+01 3.071327e+01
         vertex 4.387712e+01 1.737621e+01 3.371326e+01
         vertex 2.317123e+00 1.737621e+01 3.071327e+01
      endloop
   endfacet
   facet normal -1.000000e+00 0.000000e+00 0.000000e+00
      outer loop
         vertex 2.317123e+00 1.737621e+01 1.177133e+02
         vertex 2.317123e+00 5.237621e+01 1.177133e+02
         vertex 2.317123e+00 1.737621e+01 3.071327e+01
      endloop
   endfacet
   facet normal -1.000000e+00 0.000000e+00 -0.000000e+00
      outer loop
         vertex 2.317123e+00 5.237621e+01 1.177133e+02
         vertex 2.317123e+00 5.237621e+01 3.071327e+01
         vertex 2.317123e+00 1.737621e+01 3.071327e+01
      endloop
   endfacet
   facet normal 0.000000e+00 0.000000e+00 -1.000000e+00
      outer loop
         vertex 2.317123e+00 5.237621e+01 3.071327e+01
         vertex 4.631712e+01 5.237621e+01 3.071327e+01
         vertex 2.317123e+00 1.737621e+01 3.071327e+01
      endloop
   endfacet
   facet normal 0.000000e+00 -0.000000e+00 -1.000000e+00
      outer loop
         vertex 4.631712e+01 5.237621e+01 3.071327e+01
         vertex 4.631712e+01 1.737621e+01 3.071327e+01
         vertex 2.317123e+00 1.737621e+01 3.071327e+01
      endloop
   endfacet
   facet normal 0.000000e+00 -1.000000e+00 0.000000e+00
      outer loop
         vertex 4.387712e+01 1.737621e+01 1.147133e+02
         vertex 4.387712e+01 1.737621e+01 3.371326e+01
         vertex 4.631712e+01 1.737621e+01 3.071327e+01
      endloop
   endfacet
   facet normal 0.000000e+00 -1.000000e+00 -0.000000e+00
      outer loop
         vertex 4.631712e+01 1.737621e+01 1.177133e+02
         vertex 4.387712e+01 1.737621e+01 1.147133e+02
         vertex 4.631712e+01 1.737621e+01 3.071327e+01
      endloop
   endfacet
   facet normal 1.000000e+00 0.000000e+00 0.000000e+00
      outer loop
         vertex 4.631712e+01 5.237621e+01 3.071327e+01
         vertex 4.631712e+01 1.737621e+01 1.177133e+02
         vertex 4.631712e+01 1.737621e+01 3.071327e+01
      endloop
   endfacet
   facet normal -0.000000e+00 -1.000000e+00 -0.000000e+00
      outer loop
         vertex 4.757123e+00 1.737621e+01 1.147133e+02
         vertex 2.317123e+00 1.737621e+01 1.177133e+02
         vertex 4.757123e+00 1.737621e+01 3.371326e+01
      endloop
   endfacet
   facet normal 1.000000e+00 0.000000e+00 -0.000000e+00
      outer loop
         vertex 4.757123e+00 4.937621e+01 3.371326e+01
         vertex 4.757123e+00 4.937621e+01 1.147133e+02
         vertex 4.757123e+00 1.737621e+01 3.371326e+01
      endloop
   endfacet
   facet normal 1.000000e+00 0.000000e+00 0.000000e+00
      outer loop
         vertex 4.757123e+00 4.937621e+01 1.147133e+02
         vertex 4.757123e+00 1.737621e+01 1.147133e+02
         vertex 4.757123e+00 1.737621e+01 3.371326e+01
      endloop
   endfacet
   facet normal 0.000000e+00 0.000000e+00 1.000000e+00
      outer loop
         vertex 2.331712e+01 4.937621e+01 3.371326e+01
         vertex 4.757123e+00 4.937621e+01 3.371326e+01
         vertex 4.757123e+00 1.737621e+01 3.371326e+01
      endloop
   endfacet
   facet normal 0.000000e+00 0.000000e+00 1.000000e+00
      outer loop
         vertex 4.387712e+01 1.737621e+01 3.371326e+01
         vertex 2.331712e+01 4.937621e+01 3.371326e+01
         vertex 4.757123e+00 1.737621e+01 3.371326e+01
      endloop
   endfacet
   facet normal -1.000000e+00 0.000000e+00 0.000000e+00
      outer loop
         vertex 4.387712e+01 1.737621e+01 1.147133e+02
         vertex 4.387712e+01 4.937621e+01 3.371326e+01
         vertex 4.387712e+01 1.737621e+01 3.371326e+01
      endloop
   endfacet
   facet normal 0.000000e+00 0.000000e+00 1.000000e+00
      outer loop
         vertex 4.387712e+01 4.937621e+01 3.371326e+01
         vertex 2.531712e+01 4.937621e+01 3.371326e+01
         vertex 4.387712e+01 1.737621e+01 3.371326e+01
      endloop
   endfacet
   facet normal 0.000000e+00 0.000000e+00 1.000000e+00
      outer loop
         vertex 2.531712e+01 4.937621e+01 3.371326e+01
         vertex 2.331712e+01 4.937621e+01 3.371326e+01
         vertex 4.387712e+01 1.737621e+01 3.371326e+01
      endloop
   endfacet
   facet normal 0.000000e+00 -1.000000e+00 0.000000e+00
      outer loop
         vertex 4.387712e+01 1.737621e+01 1.147133e+02
         vertex 4.631712e+01 1.737621e+01 1.177133e+02
         vertex 4.757123e+00 1.737621e+01 1.147133e+02
      endloop
   endfacet
   facet normal -0.000000e+00 -1.000000e+00 0.000000e+00
      outer loop
         vertex 4.631712e+01 1.737621e+01 1.177133e+02
         vertex 2.317123e+00 1.737621e+01 1.177133e+02
         vertex 4.757123e+00 1.737621e+01 1.147133e+02
      endloop
   endfacet
   facet normal 0.000000e+00 0.000000e+00 -1.000000e+00
      outer loop
         vertex 4.757123e+00 4.937621e+01 1.147133e+02
         vertex 2.331712e+01 4.937621e+01 1.147133e+02
         vertex 4.757123e+00 1.737621e+01 1.147133e+02
      endloop
   endfacet
   facet normal 0.000000e+00 -0.000000e+00 -1.000000e+00
      outer loop
         vertex 2.331712e+01 4.937621e+01 1.147133e+02
         vertex 2.531712e+01 4.937621e+01 1.147133e+02
         vertex 4.757123e+00 1.737621e+01 1.147133e+02
      endloop
   endfacet
   facet normal 0.000000e+00 -0.000000e+00 -1.000000e+00
      outer loop
         vertex 2.531712e+01 4.937621e+01 1.147133e+02
         vertex 4.387712e+01 1.737621e+01 1.147133e+02
         vertex 4.757123e+00 1.737621e+01 1.147133e+02
      endloop
   endfacet
   facet normal -1.000000e+00 -0.000000e+00 -0.000000e+00
      outer loop
         vertex 4.387712e+01 4.937621e+01 1.147133e+02
         vertex 4.387712e+01 4.937621e+01 3.371326e+01
         vertex 4.387712e+01 1.737621e+01 1.147133e+02
      endloop
   endfacet
   facet normal 0.000000e+00 0.000000e+00 -1.000000e+00
      outer loop
         vertex 2.531712e+01 4.937621e+01 1.147133e+02
         vertex 4.387712e+01 4.937621e+01 1.147133e+02
         vertex 4.387712e+01 1.737621e+01 1.147133e+02
      endloop
   endfacet
   facet normal 0.000000e+00 0.000000e+00 1.000000e+00
      outer loop
         vertex 4.631712e+01 1.737621e+01 1.177133e+02
         vertex 2.317123e+00 5.237621e+01 1.177133e+02
         vertex 2.317123e+00 1.737621e+01 1.177133e+02
      endloop
   endfacet
   facet normal 1.000000e+00 0.000000e+00 -0.000000e+00
      outer loop
         vertex 4.631712e+01 5.237621e+01 3.071327e+01
         vertex 4.631712e+01 5.237621e+01 1.177133e+02
         vertex 4.631712e+01 1.737621e+01 1.177133e+02
      endloop
   endfacet
   facet normal 0.000000e+00 0.000000e+00 1.000000e+00
      outer loop
         vertex 4.631712e+01 5.237621e+01 1.177133e+02
         vertex 2.317123e+00 5.237621e+01 1.177133e+02
         vertex 4.631712e+01 1.737621e+01 1.177133e+02
      endloop
   endfacet
   facet normal 0.000000e+00 -1.000000e+00 0.000000e+00
      outer loop
         vertex 2.331712e+01 4.937621e+01 3.371326e+01
         vertex 2.331712e+01 4.937621e+01 1.147133e+02
         vertex 4.757123e+00 4.937621e+01 3.371326e+01
      endloop
   endfacet
   facet normal -0.000000e+00 -1.000000e+00 0.000000e+00
      outer loop
         vertex 2.331712e+01 4.937621e+01 1.147133e+02
         vertex 4.757123e+00 4.937621e+01 1.147133e+02
         vertex 4.757123e+00 4.937621e+01 3.371326e+01
      endloop
   endfacet
   facet normal 1.000000e+00 0.000000e+00 0.000000e+00
      outer loop
         vertex 2.331712e+01 5.037621e+01 3.371326e+01
         vertex 2.331712e+01 4.937621e+01 1.147133e+02
         vertex 2.331712e+01 4.937621e+01 3.371326e+01
      endloop
   endfacet
   facet normal 0.000000e+00 0.000000e+00 1.000000e+00
      outer loop
         vertex 2.531712e+01 4.937621e+01 3.371326e+01
         vertex 2.331712e+01 5.037621e+01 3.371326e+01
         vertex 2.331712e+01 4.937621e+01 3.371326e+01
      endloop
   endfacet
   facet normal -1.000000e+00 0.000000e+00 -0.000000e+00
      outer loop
         vertex 2.531712e+01 5.037621e+01 1.147133e+02
         vertex 2.531712e+01 5.037621e+01 3.371326e+01
         vertex 2.531712e+01 4.937621e+01 3.371326e+01
      endloop
   endfacet
   facet normal -1.000000e+00 0.000000e+00 0.000000e+00
      outer loop
         vertex 2.531712e+01 4.937621e+01 1.147133e+02
         vertex 2.531712e+01 5.037621e+01 1.147133e+02
         vertex 2.531712e+01 4.937621e+01 3.371326e+01
      endloop
   endfacet
   facet normal 0.000000e+00 -1.000000e+00 0.000000e+00
      outer loop
         vertex 4.387712e+01 4.937621e+01 3.371326e+01
         vertex 4.387712e+01 4.937621e+01 1.147133e+02
         vertex 2.531712e+01 4.937621e+01 3.371326e+01
      endloop
   endfacet
   facet normal -0.000000e+00 -1.000000e+00 0.000000e+00
      outer loop
         vertex 4.387712e+01 4.937621e+01 1.147133e+02
         vertex 2.531712e+01 4.937621e+01 1.147133e+02
         vertex 2.531712e+01 4.937621e+01 3.371326e+01
      endloop
   endfacet
   facet normal 0.000000e+00 0.000000e+00 1.000000e+00
      outer loop
         vertex 2.531712e+01 5.037621e+01 3.371326e+01
         vertex 2.331712e+01 5.037621e+01 3.371326e+01
         vertex 2.531712e+01 4.937621e+01 3.371326e+01
      endloop
   endfacet
   facet normal 1.000000e+00 0.000000e+00 -0.000000e+00
      outer loop
         vertex 2.331712e+01 5.037621e+01 3.371326e+01
         vertex 2.331712e+01 5.037621e+01 1.147133e+02
         vertex 2.331712e+01 4.937621e+01 1.147133e+02
      endloop
   endfacet
   facet normal 0.000000e+00 0.000000e+00 -1.000000e+00
      outer loop
         vertex 2.331712e+01 5.037621e+01 1.147133e+02
         vertex 2.531712e+01 5.037621e+01 1.147133e+02
         vertex 2.331712e+01 4.937621e+01 1.147133e+02
      endloop
   endfacet
   facet normal 0.000000e+00 -0.000000e+00 -1.000000e+00
      outer loop
         vertex 2.531712e+01 5.037621e+01 1.147133e+02
         vertex 2.531712e+01 4.937621e+01 1.147133e+02
         vertex 2.331712e+01 4.937621e+01 1.147133e+02
      endloop
   endfacet
   facet normal 0.000000e+00 0.000000e+00 1.000000e+00
      outer loop
         vertex 2.331712e+01 5.037621e+01 3.371326e+01
         vertex 1.681712e+01 5.237621e+01 3.371326e+01
         vertex 1.681712e+01 5.037621e+01 3.371326e+01
      endloop
   endfacet
   facet normal -0.000000e+00 1.000000e+00 0.000000e+00
      outer loop
         vertex 1.681712e+01 5.037621e+01 1.147133e+02
         vertex 2.331712e+01 5.037621e+01 1.147133e+02
         vertex 1.681712e+01 5.037621e+01 3.371326e+01
      endloop
   endfacet
   facet normal 0.000000e+00 1.000000e+00 0.000000e+00
      outer loop
         vertex 2.331712e+01 5.037621e+01 1.147133e+02
         vertex 2.331712e+01 5.037621e+01 3.371326e+01
         vertex 1.681712e+01 5.037621e+01 3.371326e+01
      endloop
   endfacet
   facet normal 1.000000e+00 0.000000e+00 0.000000e+00
      outer loop
         vertex 1.681712e+01 5.237621e+01 1.147133e+02
         vertex 1.681712e+01 5.037621e+01 1.147133e+02
         vertex 1.681712e+01 5.037621e+01 3.371326e+01
      endloop
   endfacet
   facet normal 1.000000e+00 0.000000e+00 -0.000000e+00
      outer loop
         vertex 1.681712e+01 5.237621e+01 3.371326e+01
         vertex 1.681712e+01 5.237621e+01 1.147133e+02
         vertex 1.681712e+01 5.037621e+01 3.371326e+01
      endloop
   endfacet
   facet normal 0.000000e+00 0.000000e+00 1.000000e+00
      outer loop
         vertex 2.531712e+01 5.037621e+01 3.371326e+01
         vertex 1.681712e+01 5.237621e+01 3.371326e+01
         vertex 2.331712e+01 5.037621e+01 3.371326e+01
      endloop
   endfacet
   facet normal 0.000000e+00 -0.000000e+00 1.000000e+00
      outer loop
         vertex 3.181712e+01 5.037621e+01 3.371326e+01
         vertex 3.181712e+01 5.237621e+01 3.371326e+01
         vertex 2.531712e+01 5.037621e+01 3.371326e+01
      endloop
   endfacet
   facet normal 0.000000e+00 0.000000e+00 1.000000e+00
      outer loop
         vertex 3.181712e+01 5.237621e+01 3.371326e+01
         vertex 1.681712e+01 5.237621e+01 3.371326e+01
         vertex 2.531712e+01 5.037621e+01 3.371326e+01
      endloop
   endfacet
   facet normal 0.000000e+00 1.000000e+00 0.000000e+00
      outer loop
         vertex 3.181712e+01 5.037621e+01 1.147133e+02
         vertex 3.181712e+01 5.037621e+01 3.371326e+01
         vertex 2.531712e+01 5.037621e+01 3.371326e+01
      endloop
   endfacet
   facet normal -0.000000e+00 1.000000e+00 0.000000e+00
      outer loop
         vertex 2.531712e+01 5.037621e+01 1.147133e+02
         vertex 3.181712e+01 5.037621e+01 1.147133e+02
         vertex 2.531712e+01 5.037621e+01 3.371326e+01
      endloop
   endfacet
   facet normal -1.000000e+00 0.000000e+00 0.000000e+00
      outer loop
         vertex 3.181712e+01 5.037621e+01 1.147133e+02
         vertex 3.181712e+01 5.237621e+01 3.371326e+01
         vertex 3.181712e+01 5.037621e+01 3.371326e+01
      endloop
   endfacet
   facet normal 0.000000e+00 0.000000e+00 -1.000000e+00
      outer loop
         vertex 1.681712e+01 5.237621e+01 1.147133e+02
         vertex 2.331712e+01 5.037621e+01 1.147133e+02
         vertex 1.681712e+01 5.037621e+01 1.147133e+02
      endloop
   endfacet
   facet normal 0.000000e+00 0.000000e+00 -1.000000e+00
      outer loop
         vertex 1.681712e+01 5.237621e+01 1.147133e+02
         vertex 2.531712e+01 5.037621e+01 1.147133e+02
         vertex 2.331712e+01 5.037621e+01 1.147133e+02
      endloop
   endfacet
   facet normal 0.000000e+00 0.000000e+00 -1.000000e+00
      outer loop
         vertex 1.681712e+01 5.237621e+01 1.147133e+02
         vertex 3.181712e+01 5.237621e+01 1.147133e+02
         vertex 2.531712e+01 5.037621e+01 1.147133e+02
      endloop
   endfacet
   facet normal 0.000000e+00 -0.000000e+00 -1.000000e+00
      outer loop
         vertex 3.181712e+01 5.237621e+01 1.147133e+02
         vertex 3.181712e+01 5.037621e+01 1.147133e+02
         vertex 2.531712e+01 5.037621e+01 1.147133e+02
      endloop
   endfacet
   facet normal -1.000000e+00 -0.000000e+00 -0.000000e+00
      outer loop
         vertex 3.181712e+01 5.237621e+01 1.147133e+02
         vertex 3.181712e+01 5.237621e+01 3.371326e+01
         vertex 3.181712e+01 5.037621e+01 1.147133e+02
      endloop
   endfacet
   facet normal 0.000000e+00 1.000000e+00 0.000000e+00
      outer loop
         vertex 1.681712e+01 5.237621e+01 3.371326e+01
         vertex 4.631712e+01 5.237621e+01 3.071327e+01
         vertex 2.317123e+00 5.237621e+01 3.071327e+01
      endloop
   endfacet
   facet normal 0.000000e+00 1.000000e+00 0.000000e+00
      outer loop
         vertex 1.681712e+01 5.237621e+01 1.147133e+02
         vertex 1.681712e+01 5.237621e+01 3.371326e+01
         vertex 2.317123e+00 5.237621e+01 3.071327e+01
      endloop
   endfacet
   facet normal 0.000000e+00 1.000000e+00 0.000000e+00
      outer loop
         vertex 2.317123e+00 5.237621e+01 1.177133e+02
         vertex 1.681712e+01 5.237621e+01 1.147133e+02
         vertex 2.317123e+00 5.237621e+01 3.071327e+01
      endloop
   endfacet
   facet normal -0.000000e+00 1.000000e+00 0.000000e+00
      outer loop
         vertex 3.181712e+01 5.237621e+01 3.371326e+01
         vertex 4.631712e+01 5.237621e+01 1.177133e+02
         vertex 4.631712e+01 5.237621e+01 3.071327e+01
      endloop
   endfacet
   facet normal -0.000000e+00 1.000000e+00 0.000000e+00
      outer loop
         vertex 1.681712e+01 5.237621e+01 3.371326e+01
         vertex 3.181712e+01 5.237621e+01 3.371326e+01
         vertex 4.631712e+01 5.237621e+01 3.071327e+01
      endloop
   endfacet
   facet normal -0.000000e+00 1.000000e+00 0.000000e+00
      outer loop
         vertex 3.181712e+01 5.237621e+01 1.147133e+02
         vertex 4.631712e+01 5.237621e+01 1.177133e+02
         vertex 3.181712e+01 5.237621e+01 3.371326e+01
      endloop
   endfacet
   facet normal 0.000000e+00 1.000000e+00 0.000000e+00
      outer loop
         vertex 4.631712e+01 5.237621e+01 1.177133e+02
         vertex 3.181712e+01 5.237621e+01 1.147133e+02
         vertex 1.681712e+01 5.237621e+01 1.147133e+02
      endloop
   endfacet
   facet normal -0.000000e+00 1.000000e+00 0.000000e+00
      outer loop
         vertex 2.317123e+00 5.237621e+01 1.177133e+02
         vertex 4.631712e+01 5.237621e+01 1.177133e+02
         vertex 1.681712e+01 5.237621e+01 1.147133e+02
      endloop
   endfacet
endsolid