solid Assembly - thin_plate_short-50
   facet normal -1.000000e+00 0.000000e+00 0.000000e+00
      outer loop
         vertex 4.881712e+01 5.237621e+01 9.734327e+01
         vertex 4.881712e+01 7.237621e+01 9.734327e+01
         vertex 4.881712e+01 5.237621e+01 9.684327e+01
      endloop
   endfacet
   facet normal -1.000000e+00 0.000000e+00 -0.000000e+00
      outer loop
         vertex 4.881712e+01 7.237621e+01 9.734327e+01
         vertex 4.881712e+01 7.237621e+01 9.684327e+01
         vertex 4.881712e+01 5.237621e+01 9.684327e+01
      endloop
   endfacet
   facet normal 0.000000e+00 -1.000000e+00 0.000000e+00
      outer loop
         vertex 9.331712e+01 5.237621e+01 9.684327e+01
         vertex 4.881712e+01 5.237621e+01 9.734327e+01
         vertex 4.881712e+01 5.237621e+01 9.684327e+01
      endloop
   endfacet
   facet normal 0.000000e+00 0.000000e+00 -1.000000e+00
      outer loop
         vertex 4.881712e+01 7.237621e+01 9.684327e+01
         vertex 9.331712e+01 5.237621e+01 9.684327e+01
         vertex 4.881712e+01 5.237621e+01 9.684327e+01
      endloop
   endfacet
   facet normal 1.000000e+00 0.000000e+00 0.000000e+00
      outer loop
         vertex 9.331712e+01 7.237621e+01 9.684327e+01
         vertex 9.331712e+01 5.237621e+01 9.734327e+01
         vertex 9.331712e+01 5.237621e+01 9.684327e+01
      endloop
   endfacet
   facet normal -0.000000e+00 -1.000000e+00 -0.000000e+00
      outer loop
         vertex 9.331712e+01 5.237621e+01 9.734327e+01
         vertex 4.881712e+01 5.237621e+01 9.734327e+01
         vertex 9.331712e+01 5.237621e+01 9.684327e+01
      endloop
   endfacet
   facet normal 0.000000e+00 0.000000e+00 -1.000000e+00
      outer loop
         vertex 4.881712e+01 7.237621e+01 9.684327e+01
         vertex 9.331712e+01 7.237621e+01 9.684327e+01
         vertex 9.331712e+01 5.237621e+01 9.684327e+01
      endloop
   endfacet
   facet normal 0.000000e+00 0.000000e+00 1.000000e+00
      outer loop
         vertex 9.331712e+01 7.237621e+01 9.734327e+01
         vertex 4.881712e+01 7.237621e+01 9.734327e+01
         vertex 4.881712e+01 5.237621e+01 9.734327e+01
      endloop
   endfacet
   facet normal 0.000000e+00 -0.000000e+00 1.000000e+00
      outer loop
         vertex 9.331712e+01 5.237621e+01 9.734327e+01
         vertex 9.331712e+01 7.237621e+01 9.734327e+01
         vertex 4.881712e+01 5.237621e+01 9.734327e+01
      endloop
   endfacet
   facet normal 1.000000e+00 0.000000e+00 -0.000000e+00
      outer loop
         vertex 9.331712e+01 7.237621e+01 9.684327e+01
         vertex 9.331712e+01 7.237621e+01 9.734327e+01
         vertex 9.331712e+01 5.237621e+01 9.734327e+01
      endloop
   endfacet
   facet normal -0.000000e+00 1.000000e+00 0.000000e+00
      outer loop
         vertex 4.881712e+01 7.237621e+01 9.734327e+01
         vertex 9.331712e+01 7.237621e+01 9.734327e+01
         vertex 4.881712e+01 7.237621e+01 9.684327e+01
      endloop
   endfacet
   facet normal 0.000000e+00 1.000000e+00 0.000000e+00
      outer loop
         vertex 9.331712e+01 7.237621e+01 9.734327e+01
         vertex 9.331712e+01 7.237621e+01 9.684327e+01
         vertex 4.881712e+01 7.237621e+01 9.684327e+01
      endloop
   endfacet
endsolid