solid Assembly - thin_plate_short-18
   facet normal -1.000000e+00 0.000000e+00 0.000000e+00
      outer loop
         vertex 2.317123e+00 5.237621e+01 8.522327e+01
         vertex 2.317123e+00 7.237621e+01 8.522327e+01
         vertex 2.317123e+00 5.237621e+01 8.472327e+01
      endloop
   endfacet
   facet normal -1.000000e+00 0.000000e+00 -0.000000e+00
      outer loop
         vertex 2.317123e+00 7.237621e+01 8.522327e+01
         vertex 2.317123e+00 7.237621e+01 8.472327e+01
         vertex 2.317123e+00 5.237621e+01 8.472327e+01
      endloop
   endfacet
   facet normal 0.000000e+00 -1.000000e+00 0.000000e+00
      outer loop
         vertex 4.681712e+01 5.237621e+01 8.472327e+01
         vertex 2.317123e+00 5.237621e+01 8.522327e+01
         vertex 2.317123e+00 5.237621e+01 8.472327e+01
      endloop
   endfacet
   facet normal 0.000000e+00 0.000000e+00 -1.000000e+00
      outer loop
         vertex 2.317123e+00 7.237621e+01 8.472327e+01
         vertex 4.681712e+01 5.237621e+01 8.472327e+01
         vertex 2.317123e+00 5.237621e+01 8.472327e+01
      endloop
   endfacet
   facet normal 1.000000e+00 0.000000e+00 0.000000e+00
      outer loop
         vertex 4.681712e+01 7.237621e+01 8.472327e+01
         vertex 4.681712e+01 5.237621e+01 8.522327e+01
         vertex 4.681712e+01 5.237621e+01 8.472327e+01
      endloop
   endfacet
   facet normal -0.000000e+00 -1.000000e+00 -0.000000e+00
      outer loop
         vertex 4.681712e+01 5.237621e+01 8.522327e+01
         vertex 2.317123e+00 5.237621e+01 8.522327e+01
         vertex 4.681712e+01 5.237621e+01 8.472327e+01
      endloop
   endfacet
   facet normal 0.000000e+00 0.000000e+00 -1.000000e+00
      outer loop
         vertex 2.317123e+00 7.237621e+01 8.472327e+01
         vertex 4.681712e+01 7.237621e+01 8.472327e+01
         vertex 4.681712e+01 5.237621e+01 8.472327e+01
      endloop
   endfacet
   facet normal 0.000000e+00 0.000000e+00 1.000000e+00
      outer loop
         vertex 4.681712e+01 7.237621e+01 8.522327e+01
         vertex 2.317123e+00 7.237621e+01 8.522327e+01
         vertex 2.317123e+00 5.237621e+01 8.522327e+01
      endloop
   endfacet
   facet normal 0.000000e+00 -0.000000e+00 1.000000e+00
      outer loop
         vertex 4.681712e+01 5.237621e+01 8.522327e+01
         vertex 4.681712e+01 7.237621e+01 8.522327e+01
         vertex 2.317123e+00 5.237621e+01 8.522327e+01
      endloop
   endfacet
   facet normal 1.000000e+00 0.000000e+00 -0.000000e+00
      outer loop
         vertex 4.681712e+01 7.237621e+01 8.472327e+01
         vertex 4.681712e+01 7.237621e+01 8.522327e+01
         vertex 4.681712e+01 5.237621e+01 8.522327e+01
      endloop
   endfacet
   facet normal -0.000000e+00 1.000000e+00 0.000000e+00
      outer loop
         vertex 2.317123e+00 7.237621e+01 8.522327e+01
         vertex 4.681712e+01 7.237621e+01 8.522327e+01
         vertex 2.317123e+00 7.237621e+01 8.472327e+01
      endloop
   endfacet
   facet normal 0.000000e+00 1.000000e+00 0.000000e+00
      outer loop
         vertex 4.681712e+01 7.237621e+01 8.522327e+01
         vertex 4.681712e+01 7.237621e+01 8.472327e+01
         vertex 2.317123e+00 7.237621e+01 8.472327e+01
      endloop
   endfacet
endsolid