solid Assembly - thin_plate_short-56
   facet normal -1.000000e+00 0.000000e+00 0.000000e+00
      outer loop
         vertex 4.881712e+01 5.237621e+01 1.155233e+02
         vertex 4.881712e+01 7.237621e+01 1.155233e+02
         vertex 4.881712e+01 5.237621e+01 1.150233e+02
      endloop
   endfacet
   facet normal -1.000000e+00 0.000000e+00 -0.000000e+00
      outer loop
         vertex 4.881712e+01 7.237621e+01 1.155233e+02
         vertex 4.881712e+01 7.237621e+01 1.150233e+02
         vertex 4.881712e+01 5.237621e+01 1.150233e+02
      endloop
   endfacet
   facet normal 0.000000e+00 -1.000000e+00 0.000000e+00
      outer loop
         vertex 9.331712e+01 5.237621e+01 1.150233e+02
         vertex 4.881712e+01 5.237621e+01 1.155233e+02
         vertex 4.881712e+01 5.237621e+01 1.150233e+02
      endloop
   endfacet
   facet normal 0.000000e+00 0.000000e+00 -1.000000e+00
      outer loop
         vertex 4.881712e+01 7.237621e+01 1.150233e+02
         vertex 9.331712e+01 5.237621e+01 1.150233e+02
         vertex 4.881712e+01 5.237621e+01 1.150233e+02
      endloop
   endfacet
   facet normal 1.000000e+00 0.000000e+00 0.000000e+00
      outer loop
         vertex 9.331712e+01 7.237621e+01 1.150233e+02
         vertex 9.331712e+01 5.237621e+01 1.155233e+02
         vertex 9.331712e+01 5.237621e+01 1.150233e+02
      endloop
   endfacet
   facet normal -0.000000e+00 -1.000000e+00 -0.000000e+00
      outer loop
         vertex 9.331712e+01 5.237621e+01 1.155233e+02
         vertex 4.881712e+01 5.237621e+01 1.155233e+02
         vertex 9.331712e+01 5.237621e+01 1.150233e+02
      endloop
   endfacet
   facet normal 0.000000e+00 0.000000e+00 -1.000000e+00
      outer loop
         vertex 4.881712e+01 7.237621e+01 1.150233e+02
         vertex 9.331712e+01 7.237621e+01 1.150233e+02
         vertex 9.331712e+01 5.237621e+01 1.150233e+02
      endloop
   endfacet
   facet normal 0.000000e+00 0.000000e+00 1.000000e+00
      outer loop
         vertex 9.331712e+01 7.237621e+01 1.155233e+02
         vertex 4.881712e+01 7.237621e+01 1.155233e+02
         vertex 4.881712e+01 5.237621e+01 1.155233e+02
      endloop
   endfacet
   facet normal 0.000000e+00 -0.000000e+00 1.000000e+00
      outer loop
         vertex 9.331712e+01 5.237621e+01 1.155233e+02
         vertex 9.331712e+01 7.237621e+01 1.155233e+02
         vertex 4.881712e+01 5.237621e+01 1.155233e+02
      endloop
   endfacet
   facet normal 1.000000e+00 0.000000e+00 -0.000000e+00
      outer loop
         vertex 9.331712e+01 7.237621e+01 1.150233e+02
         vertex 9.331712e+01 7.237621e+01 1.155233e+02
         vertex 9.331712e+01 5.237621e+01 1.155233e+02
      endloop
   endfacet
   facet normal -0.000000e+00 1.000000e+00 0.000000e+00
      outer loop
         vertex 4.881712e+01 7.237621e+01 1.155233e+02
         vertex 9.331712e+01 7.237621e+01 1.155233e+02
         vertex 4.881712e+01 7.237621e+01 1.150233e+02
      endloop
   endfacet
   facet normal 0.000000e+00 1.000000e+00 0.000000e+00
      outer loop
         vertex 9.331712e+01 7.237621e+01 1.155233e+02
         vertex 9.331712e+01 7.237621e+01 1.150233e+02
         vertex 4.881712e+01 7.237621e+01 1.150233e+02
      endloop
   endfacet
endsolid