solid Assembly - thin_plate_short-51
   facet normal -1.000000e+00 0.000000e+00 0.000000e+00
      outer loop
         vertex 4.881712e+01 5.237621e+01 1.003733e+02
         vertex 4.881712e+01 7.237621e+01 1.003733e+02
         vertex 4.881712e+01 5.237621e+01 9.987327e+01
      endloop
   endfacet
   facet normal -1.000000e+00 0.000000e+00 -0.000000e+00
      outer loop
         vertex 4.881712e+01 7.237621e+01 1.003733e+02
         vertex 4.881712e+01 7.237621e+01 9.987327e+01
         vertex 4.881712e+01 5.237621e+01 9.987327e+01
      endloop
   endfacet
   facet normal 0.000000e+00 -1.000000e+00 0.000000e+00
      outer loop
         vertex 9.331712e+01 5.237621e+01 9.987327e+01
         vertex 4.881712e+01 5.237621e+01 1.003733e+02
         vertex 4.881712e+01 5.237621e+01 9.987327e+01
      endloop
   endfacet
   facet normal 0.000000e+00 0.000000e+00 -1.000000e+00
      outer loop
         vertex 4.881712e+01 7.237621e+01 9.987327e+01
         vertex 9.331712e+01 5.237621e+01 9.987327e+01
         vertex 4.881712e+01 5.237621e+01 9.987327e+01
      endloop
   endfacet
   facet normal 1.000000e+00 0.000000e+00 0.000000e+00
      outer loop
         vertex 9.331712e+01 7.237621e+01 9.987327e+01
         vertex 9.331712e+01 5.237621e+01 1.003733e+02
         vertex 9.331712e+01 5.237621e+01 9.987327e+01
      endloop
   endfacet
   facet normal -0.000000e+00 -1.000000e+00 -0.000000e+00
      outer loop
         vertex 9.331712e+01 5.237621e+01 1.003733e+02
         vertex 4.881712e+01 5.237621e+01 1.003733e+02
         vertex 9.331712e+01 5.237621e+01 9.987327e+01
      endloop
   endfacet
   facet normal 0.000000e+00 0.000000e+00 -1.000000e+00
      outer loop
         vertex 4.881712e+01 7.237621e+01 9.987327e+01
         vertex 9.331712e+01 7.237621e+01 9.987327e+01
         vertex 9.331712e+01 5.237621e+01 9.987327e+01
      endloop
   endfacet
   facet normal 0.000000e+00 0.000000e+00 1.000000e+00
      outer loop
         vertex 9.331712e+01 7.237621e+01 1.003733e+02
         vertex 4.881712e+01 7.237621e+01 1.003733e+02
         vertex 4.881712e+01 5.237621e+01 1.003733e+02
      endloop
   endfacet
   facet normal 0.000000e+00 -0.000000e+00 1.000000e+00
      outer loop
         vertex 9.331712e+01 5.237621e+01 1.003733e+02
         vertex 9.331712e+01 7.237621e+01 1.003733e+02
         vertex 4.881712e+01 5.237621e+01 1.003733e+02
      endloop
   endfacet
   facet normal 1.000000e+00 0.000000e+00 -0.000000e+00
      outer loop
         vertex 9.331712e+01 7.237621e+01 9.987327e+01
         vertex 9.331712e+01 7.237621e+01 1.003733e+02
         vertex 9.331712e+01 5.237621e+01 1.003733e+02
      endloop
   endfacet
   facet normal -0.000000e+00 1.000000e+00 0.000000e+00
      outer loop
         vertex 4.881712e+01 7.237621e+01 1.003733e+02
         vertex 9.331712e+01 7.237621e+01 1.003733e+02
         vertex 4.881712e+01 7.237621e+01 9.987327e+01
      endloop
   endfacet
   facet normal 0.000000e+00 1.000000e+00 0.000000e+00
      outer loop
         vertex 9.331712e+01 7.237621e+01 1.003733e+02
         vertex 9.331712e+01 7.237621e+01 9.987327e+01
         vertex 4.881712e+01 7.237621e+01 9.987327e+01
      endloop
   endfacet
endsolid