solid cap
   facet normal -1.000000e+00 -1.407640e-18 -0.000000e+00
      outer loop
         vertex 6.123234e-17 0.000000e+00 2.400000e+01
         vertex 0.000000e+00 4.350000e+01 2.400000e+01
         vertex 6.123234e-17 0.000000e+00 0.000000e+00
      endloop
   endfacet
   facet normal -1.000000e+00 -1.407640e-18 -0.000000e+00
      outer loop
         vertex 0.000000e+00 4.350000e+01 2.400000e+01
         vertex 0.000000e+00 4.350000e+01 0.000000e+00
         vertex 6.123234e-17 0.000000e+00 0.000000e+00
      endloop
   endfacet
   facet normal 0.000000e+00 -1.000000e+00 0.000000e+00
      outer loop
         vertex 4.350000e+01 0.000000e+00 0.000000e+00
         vertex 6.123234e-17 0.000000e+00 2.400000e+01
         vertex 6.123234e-17 0.000000e+00 0.000000e+00
      endloop
   endfacet
   facet normal 0.000000e+00 0.000000e+00 -1.000000e+00
      outer loop
         vertex 0.000000e+00 4.350000e+01 0.000000e+00
         vertex 4.350000e+01 0.000000e+00 0.000000e+00
         vertex 6.123234e-17 0.000000e+00 0.000000e+00
      endloop
   endfacet
   facet normal -0.000000e+00 -1.000000e+00 -0.000000e+00
      outer loop
         vertex 4.350000e+01 0.000000e+00 2.400000e+01
         vertex 6.123234e-17 0.000000e+00 2.400000e+01
         vertex 4.350000e+01 0.000000e+00 0.000000e+00
      endloop
   endfacet
   facet normal 1.000000e+00 0.000000e+00 0.000000e+00
      outer loop
         vertex 4.350000e+01 4.350000e+01 0.000000e+00
         vertex 4.350000e+01 0.000000e+00 2.400000e+01
         vertex 4.350000e+01 0.000000e+00 0.000000e+00
      endloop
   endfacet
   facet normal 0.000000e+00 0.000000e+00 -1.000000e+00
      outer loop
         vertex 0.000000e+00 4.350000e+01 0.000000e+00
         vertex 4.350000e+01 4.350000e+01 0.000000e+00
         vertex 4.350000e+01 0.000000e+00 0.000000e+00
      endloop
   endfacet
   facet normal 0.000000e+00 0.000000e+00 1.000000e+00
      outer loop
         vertex 4.150000e+01 2.000000e+00 2.400000e+01
         vertex 2.000000e+00 2.000000e+00 2.400000e+01
         vertex 6.123234e-17 0.000000e+00 2.400000e+01
      endloop
   endfacet
   facet normal 0.000000e+00 0.000000e+00 1.000000e+00
      outer loop
         vertex 4.350000e+01 0.000000e+00 2.400000e+01
         vertex 4.150000e+01 2.000000e+00 2.400000e+01
         vertex 6.123234e-17 0.000000e+00 2.400000e+01
      endloop
   endfacet
   facet normal 0.000000e+00 0.000000e+00 1.000000e+00
      outer loop
         vertex 2.000000e+00 2.000000e+00 2.400000e+01
         vertex 0.000000e+00 4.350000e+01 2.400000e+01
         vertex 6.123234e-17 0.000000e+00 2.400000e+01
      endloop
   endfacet
   facet normal 1.000000e+00 0.000000e+00 -0.000000e+00
      outer loop
         vertex 4.350000e+01 4.350000e+01 0.000000e+00
         vertex 4.350000e+01 4.350000e+01 2.400000e+01
         vertex 4.350000e+01 0.000000e+00 2.400000e+01
      endloop
   endfacet
   facet normal 0.000000e+00 0.000000e+00 1.000000e+00
      outer loop
         vertex 4.150000e+01 4.150000e+01 2.400000e+01
         vertex 4.150000e+01 2.000000e+00 2.400000e+01
         vertex 4.350000e+01 0.000000e+00 2.400000e+01
      endloop
   endfacet
   facet normal 0.000000e+00 0.000000e+00 1.000000e+00
      outer loop
         vertex 4.350000e+01 4.350000e+01 2.400000e+01
         vertex 4.150000e+01 4.150000e+01 2.400000e+01
         vertex 4.350000e+01 0.000000e+00 2.400000e+01
      endloop
   endfacet
   facet normal 1.000000e+00 0.000000e+00 0.000000e+00
      outer loop
         vertex 2.000000e+00 4.150000e+01 2.000000e+00
         vertex 2.000000e+00 2.000000e+00 2.400000e+01
         vertex 2.000000e+00 2.000000e+00 2.000000e+00
      endloop
   endfacet
   facet normal 0.000000e+00 1.000000e+00 0.000000e+00
      outer loop
         vertex 4.150000e+01 2.000000e+00 2.400000e+01
         vertex 4.150000e+01 2.000000e+00 2.000000e+00
         vertex 2.000000e+00 2.000000e+00 2.000000e+00
      endloop
   endfacet
   facet normal -0.000000e+00 1.000000e+00 0.000000e+00
      outer loop
         vertex 2.000000e+00 2.000000e+00 2.400000e+01
         vertex 4.150000e+01 2.000000e+00 2.400000e+01
         vertex 2.000000e+00 2.000000e+00 2.000000e+00
      endloop
   endfacet
   facet normal 0.000000e+00 -0.000000e+00 1.000000e+00
      outer loop
         vertex 4.150000e+01 2.000000e+00 2.000000e+00
         vertex 4.150000e+01 4.150000e+01 2.000000e+00
         vertex 2.000000e+00 2.000000e+00 2.000000e+00
      endloop
   endfacet
   facet normal 0.000000e+00 0.000000e+00 1.000000e+00
      outer loop
         vertex 4.150000e+01 4.150000e+01 2.000000e+00
         vertex 2.000000e+00 4.150000e+01 2.000000e+00
         vertex 2.000000e+00 2.000000e+00 2.000000e+00
      endloop
   endfacet
   facet normal -1.000000e+00 0.000000e+00 -0.000000e+00
      outer loop
         vertex 4.150000e+01 4.150000e+01 2.400000e+01
         vertex 4.150000e+01 4.150000e+01 2.000000e+00
         vertex 4.150000e+01 2.000000e+00 2.000000e+00
      endloop
   endfacet
   facet normal -1.000000e+00 0.000000e+00 0.000000e+00
      outer loop
         vertex 4.150000e+01 2.000000e+00 2.400000e+01
         vertex 4.150000e+01 4.150000e+01 2.400000e+01
         vertex 4.150000e+01 2.000000e+00 2.000000e+00
      endloop
   endfacet
   facet normal 0.000000e+00 0.000000e+00 1.000000e+00
      outer loop
         vertex 2.000000e+00 4.150000e+01 2.400000e+01
         vertex 0.000000e+00 4.350000e+01 2.400000e+01
         vertex 2.000000e+00 2.000000e+00 2.400000e+01
      endloop
   endfacet
   facet normal 1.000000e+00 0.000000e+00 -0.000000e+00
      outer loop
         vertex 2.000000e+00 4.150000e+01 2.000000e+00
         vertex 2.000000e+00 4.150000e+01 2.400000e+01
         vertex 2.000000e+00 2.000000e+00 2.400000e+01
      endloop
   endfacet
   facet normal 0.000000e+00 -1.000000e+00 0.000000e+00
      outer loop
         vertex 4.150000e+01 4.150000e+01 2.000000e+00
         vertex 2.000000e+00 4.150000e+01 2.400000e+01
         vertex 2.000000e+00 4.150000e+01 2.000000e+00
      endloop
   endfacet
   facet normal -0.000000e+00 -1.000000e+00 -0.000000e+00
      outer loop
         vertex 4.150000e+01 4.150000e+01 2.400000e+01
         vertex 2.000000e+00 4.150000e+01 2.400000e+01
         vertex 4.150000e+01 4.150000e+01 2.000000e+00
      endloop
   endfacet
   facet normal 0.000000e+00 -0.000000e+00 1.000000e+00
      outer loop
         vertex 4.150000e+01 4.150000e+01 2.400000e+01
         vertex 4.350000e+01 4.350000e+01 2.400000e+01
         vertex 2.000000e+00 4.150000e+01 2.400000e+01
      endloop
   endfacet
   facet normal 0.000000e+00 0.000000e+00 1.000000e+00
      outer loop
         vertex 4.350000e+01 4.350000e+01 2.400000e+01
         vertex 0.000000e+00 4.350000e+01 2.400000e+01
         vertex 2.000000e+00 4.150000e+01 2.400000e+01
      endloop
   endfacet
   facet normal -0.000000e+00 1.000000e+00 0.000000e+00
      outer loop
         vertex 0.000000e+00 4.350000e+01 2.400000e+01
         vertex 4.350000e+01 4.350000e+01 2.400000e+01
         vertex 0.000000e+00 4.350000e+01 0.000000e+00
      endloop
   endfacet
   facet normal 0.000000e+00 1.000000e+00 0.000000e+00
      outer loop
         vertex 4.350000e+01 4.350000e+01 2.400000e+01
         vertex 4.350000e+01 4.350000e+01 0.000000e+00
         vertex 0.000000e+00 4.350000e+01 0.000000e+00
      endloop
   endfacet
endsolid